<svg width="450" height="150.61" xmlns="http://www.w3.org/2000/svg"><style>.st0{fill:#fff}.st1{fill:#00aeef}</style><path id="svg_1" d="M215 37.82v43.91c0 22.99-11.17 32.96-28.69 32.96-10.51 0-19.71-5.69-24.2-15l10.51-4.82c2.52 5.04 8.1 8.32 13.69 8.32 9.85 0 15.99-5.69 15.99-20.26v-.77c-3.61 5.26-10.73 7.88-16.97 7.88-13.47 0-25.18-10.4-25.18-26.72 0-16.42 11.61-26.61 25.07-26.61 6.57 0 13.47 2.52 17.08 7.77V37.8H215v.02zm-12.92 25.41c0-8.98-7.45-14.67-14.78-14.67-7.88 0-14.34 6.13-14.34 14.67s6.46 14.89 14.34 14.89c7.77 0 14.78-5.91 14.78-14.89z" class="st0"/><path id="svg_2" d="M223.1 63.23c0-16.21 12.59-26.5 27.15-26.5 14.56 0 27.26 10.29 27.26 26.5s-12.7 26.83-27.26 26.83c-14.55-.01-27.15-10.63-27.15-26.83zm41.61 0c0-8.76-6.57-14.67-14.45-14.67-7.88 0-14.34 5.91-14.34 14.67 0 8.98 6.46 15 14.34 15s14.45-6.02 14.45-15z" class="st0"/><path id="svg_3" d="m332.16 37.82-21.57 51.13h-11.61l-21.35-51.13h13.69l13.58 35.04 13.47-35.04h13.79z" class="st0"/><path id="svg_4" d="M387.24 37.82v43.91c0 22.99-11.17 32.96-28.69 32.96-10.51 0-19.71-5.69-24.2-15l10.51-4.82c2.52 5.04 8.1 8.32 13.69 8.32 9.85 0 15.99-5.69 15.99-20.26v-.77c-3.61 5.26-10.73 7.88-16.97 7.88-13.47 0-25.18-10.4-25.18-26.72 0-16.42 11.61-26.61 25.07-26.61 6.57 0 13.47 2.52 17.08 7.77V37.8h12.7v.02zm-12.92 25.41c0-8.98-7.45-14.67-14.78-14.67-7.88 0-14.34 6.13-14.34 14.67s6.46 14.89 14.34 14.89c7.77 0 14.78-5.91 14.78-14.89z" class="st1"/><path id="svg_5" d="m434.21 38.48-2.52 12.04a16.03 16.03 0 0 0-7.45-1.86c-8.32 0-12.92 8.1-12.92 22.45v17.85h-12.81V37.82h12.7v10.95c2.74-8.54 8.32-12.04 14.67-12.04 3.08 0 6.36.66 8.33 1.75z" class="st1"/><g id="svg_11"><path id="svg_12" d="M116.95 56.22c.12 0 .22-.02.33-.05.2-.05.38-.12.51-.25.2-.2.35-.5.35-.8 0-.3-.15-.6-.35-.8-.2-.2-.49-.35-.84-.35-.3 0-.6.15-.8.35-.2.2-.35.5-.35.8 0 .3.15.6.35.8a1 1 0 0 0 .47.24c.11.04.22.06.33.06zm-25.13 71.12a1 1 0 0 0-.74.3c-.15.2-.3.45-.3.69 0 .3.15.55.3.75.13.1.29.16.46.2a.93.93 0 0 0 .61 0l.22-.11.02-.01c.06-.04.12-.07.18-.13.2-.15.3-.39.3-.69 0-.25-.1-.5-.3-.69a.99.99 0 0 0-.75-.31zm32.39-21.41-.19-.04c-.02 0-.33.01-.43.05-.18.04-.35.12-.48.24-.2.2-.35.5-.35.8 0 .29.15.59.35.79.2.2.49.35.79.35a1.2 1.2 0 0 0 1.2-1.14c0-.3-.15-.6-.35-.8a1 1 0 0 0-.54-.25zm-65.91 22.7c0-.3-.15-.6-.35-.8-.2-.2-.5-.3-.8-.3s-.6.1-.8.3c-.2.2-.35.5-.35.8 0 .3.15.6.35.79.2.2.5.35.8.35s.6-.15.8-.35c.2-.19.35-.49.35-.79zm71.61-53.59h-.05a1.2 1.2 0 0 0-1.15 1.14c0 .3.16.6.35.8.2.2.5.35.8.35h.05c.3 0 .6-.15.8-.35.2-.2.35-.49.35-.8 0-.3-.15-.6-.35-.79-.2-.2-.5-.3-.8-.35zM98.23 28.8c-.76-.25-1.51-.54-2.26-.83l-.12-.16c-.15-.64-.35-1.29-.6-1.94-.25-.69-.54-1.39-.94-2.08-.1-.2-.4-.25-.6-.15-.2.1-.3.4-.15.6.35.65.65 1.29.9 1.94.15.44.28.9.38 1.35-.96-.4-1.92-.82-2.89-1.28-.09-.55-.15-1.11-.33-1.66-.15-.6-.4-1.19-.8-1.79a.46.46 0 0 0-.64-.1c-.2.15-.2.45-.1.65.35.45.55.94.7 1.49.09.32.15.64.21.96l-.65-.31c-.86-.43-1.72-.89-2.58-1.36 0-.29.05-.48.05-.73.1-.5.2-.94-.2-1.59-.1-.2-.35-.25-.6-.15-.2.15-.25.4-.15.59.24.4.15.65.1.99a5.1 5.1 0 0 0-.05.41c-1.45-.81-2.91-1.66-4.41-2.54-.2-.1-.5-.05-.6.15-.15.2-.05.49.15.59 1.36.83 2.7 1.62 4.03 2.37l-.16.07c-.45.25-.84.45-1.49.45-.25 0-.45.25-.45.44 0 .25.2.45.45.45a4.02 4.02 0 0 0 1.89-.54l.73-.33c.97.53 1.94 1.04 2.89 1.52.14.08.29.14.43.2-.54.2-1.12.32-1.72.45l-.65.15a.4.4 0 0 0-.3.49c.05.25.25.4.49.35l.6-.15a8.81 8.81 0 0 0 2.6-.8c.77.36 1.54.71 2.32 1.04l-.35.1c-.64.2-1.24.3-1.88.4a.49.49 0 0 0-.4.5c.05.25.3.4.5.4.69-.1 1.34-.25 1.98-.45.46-.1.93-.25 1.41-.43.98.4 1.96.78 2.96 1.13.25.1.5-.05.54-.25.11-.26-.04-.51-.24-.61zm-72.34 78.53a.87.87 0 0 0-.64 0c-.18.05-.35.12-.47.24a1 1 0 0 0-.35.8c0 .3.1.6.35.8.2.2.49.35.79.35.3 0 .6-.15.8-.35a1 1 0 0 0 .35-.8 1 1 0 0 0-.35-.8c-.13-.12-.3-.19-.48-.24zm89.54-63.3c.01-.13.04-.27.08-.43l.15-.55c.15-.94.25-1.94.25-2.98 0-.25-.2-.44-.45-.44s-.44.2-.44.44c0 .98-.1 1.91-.25 2.79-.39-.68-.8-1.35-1.21-2.01.03-.07.11-.53.17-.68.15-.84.2-1.79.15-2.78 0-.2-.2-.4-.44-.4-.25 0-.45.25-.4.45.04.81-.03 1.63-.16 2.33-.47-.72-.96-1.43-1.46-2.15.15-.45.24-.95.29-1.47.05-.6.1-1.24.05-1.83 0-.25-.2-.45-.44-.45-.25 0-.4.2-.4.45 0 .6 0 1.19-.1 1.74l-.08.58c-.3-.42-.62-.84-.96-1.28a30.6 30.6 0 0 0-1.59-1.98c-.15-.2-.45-.2-.65-.05-.15.15-.2.4-.05.6.54.64 1.1 1.34 1.59 1.99l.86 1.14a3.34 3.34 0 0 1-1.75-.79.47.47 0 0 0-.65.05.41.41 0 0 0 .05.6c.89.8 1.79.95 2.73 1.15.11 0 .25.02.39.06.56.8 1.1 1.61 1.62 2.42a3.05 3.05 0 0 1-.66-.15c-.5-.1-.9-.3-1.34-.45-.2-.15-.45-.05-.55.2-.15.2-.05.49.2.6.44.2.94.4 1.44.55.47.09.95.16 1.46.16.44.71.87 1.43 1.28 2.15a3.8 3.8 0 0 1-.75-.22c-.54-.15-1.1-.4-1.59-.69-.25-.1-.49-.05-.6.2-.15.2-.05.45.15.6.6.29 1.14.54 1.74.74.51.17 1.03.26 1.57.31a67.7 67.7 0 0 1 2.11 4.16c.1.2.35.3.55.2.25-.1.35-.35.25-.6a74.43 74.43 0 0 0-2.16-4.28zm-13.57-16.62c.35 0 .65-.1.84-.3.2-.2.35-.5.35-.8 0-.35-.15-.6-.35-.8-.2-.2-.49-.35-.84-.35-.3 0-.6.15-.8.35-.2.2-.35.44-.35.8 0 .3.15.6.35.8.2.2.5.3.8.3zM121 50.21a1.13 1.13 0 0 0 .65 0c.2-.05.38-.12.51-.25.2-.19.35-.49.35-.79a1.2 1.2 0 0 0-1.2-1.15 1.2 1.2 0 0 0-1.15 1.15c0 .3.15.6.35.79.14.13.31.2.49.25zM44.44 30.2c.35 0 .6-.1.85-.3.13-.13.2-.31.25-.51.02-.09.05-.19.05-.29 0-.35-.1-.6-.35-.79-.2-.2-.45-.35-.8-.35-.3 0-.6.15-.79.35-.2.19-.35.44-.35.79a1.12 1.12 0 0 0 1.14 1.1zM17.03 79.31c.3 0 .59-.15.79-.35l-.02-.03c.2-.2.32-.47.32-.77h.05a1 1 0 0 0-.35-.8.96.96 0 0 0-.47-.24 1.07 1.07 0 0 0-.64 0c-.18.04-.35.12-.48.24a1 1 0 0 0-.35.8c0 .3.1.6.35.8.2.21.5.35.8.35zm8.04-27.06c.3 0 .54-.1.75-.3.15-.2.3-.44.3-.69 0-.3-.15-.54-.3-.74-.2-.15-.45-.3-.75-.3-.29 0-.54.15-.74.3-.2.2-.3.45-.3.74 0 .25.1.49.3.69.19.2.45.3.74.3zm21.36-15.7c.11 0 .21-.02.31-.05.19-.04.37-.11.53-.24.13-.13.2-.31.24-.5a.93.93 0 0 0 .05-.29 1 1 0 0 0-.35-.8c-.2-.2-.45-.35-.8-.35-.3 0-.6.15-.8.35-.2.2-.35.5-.35.8s.15.6.35.8c.13.13.29.2.48.24.12.02.23.04.34.04zm1.63 84.59-2.57-4.07c-.15-.25-.4-.3-.6-.15-.2.1-.3.4-.15.6l1.83 2.96-2.63-1.21c-.34-.62-.77-1.28-1.19-1.9a26.5 26.5 0 0 1-1.19-2.03c-.15-.2-.4-.3-.6-.2-.25.15-.3.4-.2.6v.05l.02-.01c.34.68.78 1.36 1.22 2.04l.5.77c-.92-.45-1.83-.92-2.74-1.39-.29-.44-.64-.94-1.08-1.62-.4-.54-.75-1.14-1.09-1.58-.1-.25-.4-.3-.6-.15-.2.15-.24.4-.15.6.4.55.75 1.1 1.09 1.64l.16.26a111.5 111.5 0 0 1-5.33-2.99c-.2-.1-.5-.05-.6.15-.15.2-.05.5.15.6 1.85 1.09 3.72 2.14 5.6 3.14l-.48.04c-.69.05-1.34.1-1.99.2-.25 0-.4.25-.4.5.05.25.3.4.55.35.6-.1 1.24-.15 1.89-.2.58-.05 1.2-.09 1.78-.17.89.46 1.78.92 2.67 1.36l-.93.06c-.9.05-1.79.1-2.58.2-.25 0-.4.25-.4.5.05.24.25.4.49.34.79-.1 1.69-.15 2.53-.2.83-.04 1.65-.1 2.39-.18l2.91 1.34-3.34.79c-.25.05-.4.3-.3.5.05.24.3.4.5.35l4.45-1.1 2.15.94c-1.13.46-3.22.75-3.37.75-.25.05-.4.3-.35.54 0 .2.25.4.49.35.1 0 2.72-.4 4.34-1.18l1.62.68c.2.1.44 0 .54-.25.1-.25 0-.5-.25-.6-1.58-.64-3.18-1.32-4.76-2.02zm85.53-43.37c0-.29-.35-.5-.59-.4a26.36 26.36 0 0 0-5.65 3.53 27.25 27.25 0 0 0-.73-4.06 21.56 21.56 0 0 0 4.34-14.07c-.25-5.11-2.08-10.48-5.46-16.14-.2-.3-.65-.3-.79.04l-3.08 7.16c-.27.73-.49 1.45-.68 2.17-.61-1.56-1.6-4.23-1.6-4.86 0-.29.05-.59.05-.89.05-2.39.05-4.32-1.04-9.88l-.05-.05c-1.54-4.52-6.06-8.29-9.84-10.63a18.5 18.5 0 0 0-2.03-1.24c-.65-.35-1.24-.65-1.69-.84-.3-.15-.64.05-.64.35-.08 1.32-.03 2.58.12 3.78a6.15 6.15 0 0 0-.47-.3c-.33-.25-.67-.54-1.18-.85l-.02-.02a36.82 36.82 0 0 1-2.63-2.51 13.3 13.3 0 0 1-1.82-2.57c-.09-.17-.14-.36-.22-.5l.01-.01-.07-.08-.01-.01a21.5 21.5 0 0 0-3.49-3.09 20.07 20.07 0 0 0-5.56-2.58s-2.68-.54-5.52-.74c-2.48-.2-4.96-.4-7.05-1.19-.07-.02-.13-.04-.17-.03-.24.05-.35.11-.39.22-.04.11-.07.1-.03.31.28 1.57.9 2.92 1.75 4.18a29.52 29.52 0 0 0-4.38 2.73 19.93 19.93 0 0 0-3.42 3.38c-.2.25-.05.64.3.69 2.38.45 4.72.65 7.1.54 2.26-.09 4.53-.42 6.95-.92a18.6 18.6 0 0 0 10.62 3.26v.01s2.79-.16 3.88-.26c1.09-.1 3.29-.26 3.32-.27.05.02 2.21 1.49 2.69 1.77a23.71 23.71 0 0 0 7.06 12.85c1.14.9 2.28 1.94 3.47 3.18 1.18 1.23 2.31 2.65 3.54 4.12.35.69.69 1.44 1.04 2.23.39.79.73 1.57 1.07 2.21a29.99 29.99 0 0 0-.68 8.15l-1.29-1.46c-.94-1.05-1.94-2.14-2.83-3.23-.25-.25-.65-.2-.8.1-1.54 4.47-1.84 8.34-1.24 11.72a18.7 18.7 0 0 0 4.22 8.79s1.64 1.39 2.48 2.08c.84.7 1.72 1.4 2.56 2.14a21.85 21.85 0 0 0-3.12 7.83c-.27-.56-.57-1.12-.93-1.66a16.76 16.76 0 0 0-2.23-2.98c-.2-.25-.65-.15-.74.15a41.58 41.58 0 0 1-2.39 6.31c-.15.4-.35.74-.55 1.14-.14.34-.54 1.04-.54 1.04a29.32 29.32 0 0 0-3.77 7.2 18.42 18.42 0 0 0-1.05 6.5l-.79.3a24.41 24.41 0 0 0-10.53 8.25 11.5 11.5 0 0 1-3.18 3.52 9.23 9.23 0 0 1-3.62 1.28c2.61-2.86 4.39-6.42 5.61-10.32.1-.35-.24-.7-.6-.54-1.14.49-2.28.84-3.48 1.14-1.24.24-2.43.4-3.73.5h-.08l.07.3.01.12-.07-.43a26.8 26.8 0 0 0-8.25 2.53 18.34 18.34 0 0 0-3.82 2.64 9.93 9.93 0 0 0-4.08-2.39c-1.94-.69-7.25-1.49-7.25-1.49a48.3 48.3 0 0 1-4.62-.5c-1.54-.2-3.08-.5-4.62-.89a.46.46 0 0 0-.49.64c1.44 2.93 3.73 5.17 6.46 7.05a34.6 34.6 0 0 0 3.2 1.9l-.92-.26c-2.51-.74-5.02-1.58-7.49-2.46-4.44-4.03-8.93-7.08-13.52-8.96-.33-.14-.66-.25-.99-.38.03-2.02-.16-4.05-.7-6.17a22.52 22.52 0 0 0-3.18-6.8s-1.84-2.39-2.68-3.73a27.06 27.06 0 0 1-2.28-4.57c-.15-.3-.65-.35-.8-.05a15.14 15.14 0 0 0-1.62 4.28 28.53 28.53 0 0 0-5.19-8.51c3.87-3.6 6.57-7.49 7.95-11.57 1.44-4.18 1.54-8.6.3-13.26-.05-.3-.4-.4-.6-.3-1.09.5-2.09 1.19-3.03 2.03a15.1 15.1 0 0 0-1.99 2.19c-.07-1.04-.2-2.1-.34-3.17-.1-.7-.25-2.04-.25-2.04-.22-.85-.44-1.64-.65-2.38.44-.59.67-1.05.85-1.49.2-.45.9-1.65.92-1.71a34.85 34.85 0 0 0 12.78-14.98s1.31-4.3 1.61-6.1c.67-.38 1.34-.72 2.01-1 .69-.35 1.43-.69 2.16-1.13 1.07.07 2.06.03 3.1-.01 1.04-.05 2.04-.1 3.13-.05 2.33.1 4.57-.1 6.65-.7a14.65 14.65 0 0 0 5.81-2.98 23.57 23.57 0 0 0 4.17-4.67 11.94 11.94 0 0 0 1.79-5.37c.05-.3-.3-.55-.6-.45a54.46 54.46 0 0 1-8.59 2.38c-.99.2-2.04.45-3.08.7v.01c-3.55.7-6.12 2.13-8.15 3.96a23.6 23.6 0 0 0-4.76 6.46c-.67.37-1.33.71-2.04 1.04-.47.2-.95.43-1.44.68l.2-1.42c.1-.8.25-1.69.35-2.49.1-.35-.3-.6-.6-.44-3.33 1.44-5.21 3.03-7.45 4.91l-2.25 1.88.01.01c-5.5 5.26-5.61 12.88-5.66 18.27v1.22c-.51.64-.71 1.15-.94 1.61a4.3 4.3 0 0 1-.33.75c-.27-.88-.54-1.7-.81-2.49a46.45 46.45 0 0 0-2.14-4.87c-.15-.29-.6-.35-.75-.05-1.79 2.88-2.63 5.27-3.58 8-.35.89-1.09 2.93-1.09 2.93-1.99 7.55 1.39 14.8 3.72 19.81.12.32.27.63.35.79v1.3l-.02.9c-.51-.45-1.03-.89-1.56-1.3a69.13 69.13 0 0 0-2.68-1.94c-.3-.2-.65 0-.7.35-.25 5.06.2 9.53 1.44 13.26a17.24 17.24 0 0 0 6.51 8.84 27.98 27.98 0 0 1 6.11 5.66c.3.45.6.84.9 1.29l.16.26.14.42a29.68 29.68 0 0 0-3.99.11c-.35 0-.54.45-.3.75a49.57 49.57 0 0 1 3.38 4.02c1.14 1.49 3.38 4.77 3.38 4.77a16.5 16.5 0 0 0 9.09 5.56c3.39.74 7.12.6 11.05-.08l12.4 3.38a35.71 35.71 0 0 1-8.9 3.16c-.15.05-.3.3-.3.45 0 .35 0 .74.15 1.09.1.39.35.79.75 1.19.05.05.3.15.35.15 1.64-.3 3.23-.65 4.82-1.14 1.64-.45 4.92-1.79 4.92-1.79.89-.5 2.19-.55 3.77-.6.8-.05 1.64-.1 2.64-.2.71-.08 1.4-.18 2.07-.3a84.2 84.2 0 0 0 7.17 2.04c2.33.54 4.72.89 7.2.99.1 0 .29-.11.35-.2.4-.54.6-1.14.65-1.69.05-.6-.05-1.14-.35-1.74-.05-.1-.25-.2-.35-.24-1.44-.15-2.93-.3-4.42-.55-1.25-.2-2.46-.46-3.67-.77a20.9 20.9 0 0 0 4.61-3.1c.75 0 1.37-.05 1.99-.1l2.02-.15c4.01.74 7.77.79 11.24-.05a21.5 21.5 0 0 0 9.54-5.17 55.83 55.83 0 0 0 6.26-6.6 15.1 15.1 0 0 0 2.73-4.72c.05-.3-.2-.6-.54-.55-.82.18-1.64.31-2.45.43.65-1.05 1.2-2.16 1.63-3.32a15.34 15.34 0 0 0 6.24-4.07c1.99-2.18 5.54-10.33 5.86-11.32.32-1 .94-6.16 1.09-9.34.05-.64.05-1.24.05-1.84 0-.5 0-1.05-.05-1.55zM76.87 28.41c-2.04.09-4.07-.08-6.14-.42.78-.9 1.67-1.75 2.76-2.6a31.85 31.85 0 0 1 4.37-2.69c.07.08 1.12 1.32 1.63 1.85-1.95.47-5.5 1.83-5.5 1.83-.25.1-.35.35-.25.6.05.2.35.35.55.25 0 0 4.51-1.75 5.95-1.92.71.7 2.58 2.31 2.7 2.4-2.08.39-4.09.65-6.07.7zm21.46 2.08c-1.14.1-2.28.2-3.28.25-3.23.1-6.21-.6-8.89-2.04-.55-.25-5.3-3.16-7.45-6.3-.06-.08-.25-.29-.57-.77-.32-.5-1.09-1.32-1.54-3.29 2.04.64 4.29.86 6.53 1.03 1.84.15 3.47.16 5.36.7a19.1 19.1 0 0 1 5.32 2.48c1.31.87 2.34 1.89 3.36 2.96a10.8 10.8 0 0 0 2.1 3.15c.54.61 1.12 1.17 1.62 1.65-.87.07-1.73.14-2.56.18zm17.23 17.83a66.67 66.67 0 0 0-3.58-3.28c-.05-.05-1.19-1.14-1.64-1.64-2.12-2.55-5.57-7.75-5.39-14.71.33.16.67.34 1.06.56.6.29 1.29.69 1.99 1.14 3.61 2.27 7.95 5.93 9.46 10.18l-.03.01c1.14 5.46 1.09 7.35 1.05 9.68v.89c0 .16.05.42.13.74a46.8 46.8 0 0 0-3.05-3.57zM51 25.87a16.14 16.14 0 0 1 7.79-3.77c1.04-.25 2.04-.44 3.08-.69a61.83 61.83 0 0 0 8.02-2.13 11.13 11.13 0 0 1-1.57 4.21 22.27 22.27 0 0 1-4.02 4.52 14.6 14.6 0 0 1-5.46 2.78c-1.99.55-4.12.74-6.36.69-1.14-.1-2.18-.05-3.23 0-.82.04-1.65.08-2.49.04A22.74 22.74 0 0 1 51 25.87zM27.7 54.13c.05-5.31.1-12.81 5.56-17.83.75-.6 1.39-1.14 2.04-1.64 2.01-1.74 3.74-3.18 6.48-4.48l-.22 1.7c-.35 2.53-.7 5.01-1.99 8.39-.3.8-.7 1.54-1.14 2.33A34.07 34.07 0 0 1 27.7 54.46v-.33zm33.43 68.14a18.02 18.02 0 0 1-5.73-5.9 49.46 49.46 0 0 0 8.41 1.23c2.78.3 5.17.75 7.05 1.39a9.1 9.1 0 0 1 3.73 2.21c-.64.65-1.25 1.35-1.81 2.13-.9-.39-1.8-.76-2.7-1.12a8.05 8.05 0 0 0-1.46-1.93c-.1-.15-.73-.86-.83-.86-.19-.12-.42-.07-.61.07-.13.17-.1.42.01.58v.01s1.25 1.3 1.45 1.55l-2.19-.88a6.52 6.52 0 0 0-1.75-2.35c-.15-.1-.3-.2-.45-.25a.8.8 0 0 0-.45-.15c-.25-.05-.45.15-.5.4-.05.2.5.49.6.54.1.05.92.78 1.25 1.28a595.4 595.4 0 0 0-5.72-2.32.45.45 0 0 0-.6.24c-.1.2.05.5.25.55 1.81.75 3.75 1.55 5.75 2.35l-.39.03c-.54.05-1.14 0-1.78-.05-.25 0-.45.15-.45.4-.05.25.15.45.4.5.65.05 1.29.05 1.89.05a7.27 7.27 0 0 0 1.8-.34l2.44.97c-.29.1-.6.19-.91.26-.65.1-1.34.2-1.99.25-.25 0-.44.2-.4.45 0 .25.2.45.45.45.7-.05 1.44-.15 2.14-.3a10 10 0 0 0 1.84-.63l2.45 1c-.53.95-1.21 1.82-2.01 2.62l-1.23-.33a41.59 41.59 0 0 1-7.95-4.1zM27.16 67.84l.05-.05a14.9 14.9 0 0 1 2.43-2.93c.75-.67 1.54-1.19 2.36-1.64a21.7 21.7 0 0 1-.38 12.22c-1.38 3.98-3.97 7.72-7.74 11.22l-.78-.83a60.84 60.84 0 0 0 2-3.53h.01c.54-.35.54-.35.6-.35.65-.45 1.34-.85 1.99-1.24.2-.15.25-.4.15-.6-.15-.19-.4-.3-.6-.15l-1.38.84c.45-.9.88-1.83 1.31-2.8.44-.34.87-.63 1.26-.87.45-.2.84-.4 1.24-.49.25-.05.4-.3.35-.5a.46.46 0 0 0-.55-.35c-.49.15-.94.3-1.44.6l-.22.13c.29-.68.57-1.39.84-2.1l.02-.02c.25-.29.54-.54.94-.84.45-.25.89-.5 1.44-.74.25-.1.3-.4.2-.6-.1-.25-.35-.3-.55-.2a8.8 8.8 0 0 0-1.47.8l.69-2.12.09-.08c.25-.3.5-.59.75-.8.3-.25.54-.45.89-.64.2-.1.25-.35.15-.6-.1-.2-.35-.25-.6-.15-.24.14-.48.31-.71.48l.41-1.37a.45.45 0 0 0-.35-.54c-.2-.1-.45.05-.55.3a48.68 48.68 0 0 1-.84 2.98c-.35.99-.65 1.94-.99 2.88a66.92 66.92 0 0 1-5.75 12.03l-.36-.36c-.03-.03 0-2.18.05-3.02a41.81 41.81 0 0 0 2.09-4.33c.44-1.03 1.39-3.03 1.39-3.03a13.55 13.55 0 0 0 1.56-6.61zm-9.15-6.36c.41-.99.76-1.98 1.06-2.88a38.27 38.27 0 0 1 3.1-7.12 38.56 38.56 0 0 1 1.72 4.04 72.3 72.3 0 0 1 1.79 5.86h.01c.05.67.15 1.31.24 1.94.43 3.68.83 7.05-1.06 10.68 0 0-.99 2.09-1.44 3.13a54.47 54.47 0 0 1-1.7 3.62c-.01-.03-5.63-12.04-3.72-19.27zm6.71 41.03c-2.93-1.99-4.92-4.82-6.16-8.39-1.13-3.43-1.58-7.48-1.42-12.11.67.47 1.33.95 1.96 1.43a28.91 28.91 0 0 1 10.19 13.91c.01.08.05.14.1.19-.09.88-.14 1.79-.1 2.73.07 2.33.52 4.86 1.29 7.59a27.78 27.78 0 0 0-5.86-5.35zm5.47-2.29c-.09-2.78.37-5.24 1.42-7.42a31.75 31.75 0 0 0 4.74 7.57 23.19 23.19 0 0 1 3.03 6.51c.5 1.97.66 3.81.64 5.64-.81-.28-1.62-.52-2.43-.72l-.42-.96c.19-.37-.03.11.02.01.5-1.19.99-2.44 1.44-3.53.1-.25-.05-.5-.25-.6-.25-.05-.5.05-.6.25-.38.98-.72 1.87-1.09 2.74-.35-.86-.68-1.73-1-2.6l.6-1.28c.3-.6.54-1.24.8-1.79.1-.2 0-.5-.2-.55-.25-.09-.5 0-.6.2-.25.6-.55 1.19-.79 1.79l-.22.47-.28-.82a46.1 46.1 0 0 1-.45-1.42.35.35 0 0 0 .1-.16c.05-.4.15-.8.29-1.25.2-.4.4-.79.7-1.19a.41.41 0 0 0-.05-.6c-.2-.15-.44-.15-.59.05-.4.45-.65.95-.85 1.44l-.06.18a59.2 59.2 0 0 1-.98-3.81c-.05-.25-.3-.4-.5-.3-.25.05-.4.25-.35.49.29 1.36.65 2.72 1.04 4.06a9.9 9.9 0 0 1-1.58-1.08c-.2-.15-.45-.1-.6.1-.2.15-.15.44.05.6a9.17 9.17 0 0 0 2.45 1.48l.53 1.65.36 1.06-.56-.27a11.4 11.4 0 0 0-1.59-.75c-.25-.1-.5 0-.59.2-.05.25.05.5.24.6.55.2 1.04.45 1.54.7.42.23.85.47 1.36.66a57.06 57.06 0 0 0 1.6 3.94 30.56 30.56 0 0 0-3.8-.57l-.54-.93a34.83 34.83 0 0 1-1.98-9.79zm23.94 24.89c-3.87.75-7.55.89-10.83.1a15.52 15.52 0 0 1-8.59-5.21h.01c-1.14-1.64-2.24-3.28-3.38-4.77a54.54 54.54 0 0 0-2.84-3.43c4.5-.28 8.83.47 13.07 2.24 4.52 1.89 8.99 4.87 13.36 8.89.05 0 5.22 1.84 7.75 2.59 1.98.58 3.96 1.13 5.94 1.65.27.12.54.22.82.33-.56.46-1.16.89-1.81 1.29l-13.5-3.68zm32.78 5.76c1.36.24 2.81.42 4.22.57.16.36.2.69.2 1.02-.04.36-.18.7-.37 1.08a42.49 42.49 0 0 1-6.83-.93 66.97 66.97 0 0 1-5.75-1.54 25.3 25.3 0 0 0 3.86-1.27c.05.07.12.14.2.18 1.49.34 2.97.64 4.47.89zm.79-5.67c-3.13 2.98-7.4 5.02-13.07 5.66-.89.1-1.79.1-2.58.15-1.69.05-3.03.15-4.17.75l.01.01a46.94 46.94 0 0 1-4.73 1.68c-1.47.42-2.97.8-4.48 1.05a1.7 1.7 0 0 1-.34-.65 3.48 3.48 0 0 1-.12-.49 34.7 34.7 0 0 0 9.36-3.53c2.5-1.46 4.4-3.28 5.61-5.5a.36.36 0 0 0 .25-.26c.03-.06.03-.14.03-.21a17.41 17.41 0 0 1 6.03-5.15 25.7 25.7 0 0 1 7.95-2.43 20.58 20.58 0 0 0 6.56-1.36c-1.35 4-3.35 7.55-6.31 10.28zm33.18-64.46c.24-2.14.74-4.32 1.58-6.61l2.68-6.28c3.04 5.23 4.73 10.24 4.92 14.92.23 4.64-.99 8.96-3.75 13.02a21.76 21.76 0 0 0-4.82-8.27l.03-.02-.66-.75c-.23-1.94-.22-3.93.02-6.01zm.09 22.2c-.78-.64-1.57-1.28-2.35-1.96a17.76 17.76 0 0 1-4.06-8.37 22.28 22.28 0 0 1 1-10.53c.76.9 1.56 1.79 2.38 2.69a113.29 113.29 0 0 1 2.88 3.27v.05a21.36 21.36 0 0 1 4.27 6.86c.81 2.2 1.25 4.44 1.41 6.68-.44.39-.85.81-1.24 1.22-.69-1.1-1.36-2.2-2-3.3.25-.65.44-1.72.53-3.02 0-.35.1-1.88.1-1.93 0-.25-.2-.45-.45-.45-.24 0-.44.2-.44.45 0 0-.05 1.59-.1 1.84-.06.79-.15 1.48-.26 2.02-.56-.99-1.88-3.48-2.01-3.74a21.75 21.75 0 0 0 .68-4.54c0-.2-.15-.45-.4-.45a.49.49 0 0 0-.5.4 42.5 42.5 0 0 1-.25 2.73l-.13.66c-.95-1.98-1.83-3.96-2.65-5.98a.43.43 0 0 0-.59-.25c-.2.1-.3.35-.2.55.84 2.1 1.74 4.16 2.74 6.21a7.95 7.95 0 0 1-.96-.49c-.6-.35-1.24-.85-1.88-1.34-.2-.15-.45-.15-.6.05-.15.2-.15.45.05.6a26.4 26.4 0 0 0 1.99 1.49c.65.37 1.31.65 1.96.81.12.24 1.33 2.59 1.84 3.5a37.8 37.8 0 0 1-3.31-1.93.48.48 0 0 0-.6.15c-.15.2-.1.45.1.6.8.54 3.77 2.16 4.54 2.49a89.17 89.17 0 0 0 2.18 3.55c-.41.48-.8.97-1.16 1.48-.8-.68-1.65-1.39-2.51-2.07zm-.32 26.86a15.53 15.53 0 0 1-2.31 3.79 61.98 61.98 0 0 1-6.16 6.46 20.19 20.19 0 0 1-9.14 4.96c-3.38.8-7 .75-10.93 0 0 0 .94-.53 1.49-.89a12.64 12.64 0 0 0 3.48-3.77l-.03-.02a23.34 23.34 0 0 1 10.16-7.87c.8-.35 1.64-.65 2.53-.95.85-.24 1.79-.5 2.73-.69.01-.02 5.73-.57 8.18-1.02zm-2.95-.54a.38.38 0 0 0-.06.13c-1.26.16-2.51.28-3.75.37.17-.38.34-.77.49-1.15.25-.65.8-2.15.82-2.23a5.2 5.2 0 0 0 1.56-.95c.6-.5 1.19-1.09 1.79-1.74a.41.41 0 0 0-.05-.6c-.15-.2-.45-.15-.6 0a12.29 12.29 0 0 1-2.36 2.14c.32-1.1.58-2.23.8-3.38.32-.16.69-.41 1.05-.7.45-.4.9-.84 1.39-1.39.15-.2.15-.44-.05-.65a.41.41 0 0 0-.6.05c-.49.5-.95.95-1.34 1.29l-.24.22c.29-1.7.5-3.45.63-5.24 0-.25-.15-.45-.39-.45-.25-.05-.45.15-.5.4a50.24 50.24 0 0 1-.62 5.27 5.54 5.54 0 0 1-.37-.45c-.25-.45-.49-.94-.74-1.49-.05-.25-.3-.35-.54-.3-.25.1-.35.35-.25.6.25.65.5 1.19.85 1.69a4 4 0 0 0 .87.99c-.23 1.15-.5 2.28-.82 3.38-.1-.15-.21-.31-.3-.5-.3-.55-.6-1.24-.94-2.19-.1-.2-.35-.35-.6-.25-.2.1-.35.35-.25.54.35.99.7 1.69.99 2.29.25.51.51.86.76 1.18l-.83 2.31c-.37-.5-.72-1.01-1.02-1.5-.05-.15-.3-.65-.35-.8a.5.5 0 0 0-.54-.25c-.25.1-.35.35-.25.6.05.1.3.69.4.84.37.69.83 1.34 1.37 2.01l-.22.46c-.03 0-4.01 1.02-4.32 1.12-.01-1.85.29-3.8 1-5.88a27.8 27.8 0 0 1 3.68-7s.99-1.94 1.14-2.33a46.67 46.67 0 0 0 2.18-5.65c.63.73 1.17 1.48 1.64 2.27.6.94 1.1 1.93 1.44 2.88 1.82 5 .73 10.02-1.95 14.04zm15.05-28.11c-.15 3.13-.7 6.8-1.14 9.23 0 0-3.68 8.8-5.61 10.88a14.63 14.63 0 0 1-5.24 3.56c.89-3.05.91-6.38-.26-9.69.01-.03.39-2.12.63-3.11.3-.94.6-1.89.99-2.78a20.31 20.31 0 0 1 4.99-6.97c.15-.03.26-.12.3-.26a24.86 24.86 0 0 1 5.36-3.56c.01.29.03.59.03.91-.01.55-.05 1.15-.05 1.79zM22.29 76.43c.1-1.1.13-2.31.11-3.58a7.09 7.09 0 0 0 1.83-2.58s.5-1 .74-1.39c.15-.2.1-.5-.1-.65-.2-.1-.49-.05-.6.15-.35.45-.6.99-.84 1.49-.33.66-.66 1.29-1.06 1.79-.04-1.18-.1-2.42-.17-3.68.76-.42 1.17-1.15 1.59-1.88.25-.4.45-.85.74-1.19a.41.41 0 0 0-.05-.6c-.2-.15-.44-.15-.6.05-.35.4-.6.84-.84 1.29-.28.49-.54.96-.9 1.29a164.7 164.7 0 0 1-.18-3.18c.73-.6 1.43-2.63 1.68-3.02.15-.2.1-.44-.05-.6a.46.46 0 0 0-.64.1c-.35.45-.87 2-1.04 2.28a46.3 46.3 0 0 1 .14-6.4.42.42 0 0 0-.4-.5c-.25-.05-.45.15-.5.4a46.6 46.6 0 0 0-.14 5.96c-.14-.21-.75-1.29-.86-1.44-.1-.2-.35-.3-.59-.2-.2.15-.3.4-.2.6.1.16 1.27 2.02 1.7 2.49l.16 3.18c-.7-.61-1.71-2.14-1.71-2.14-.1-.2-.35-.29-.6-.2-.2.05-.35.35-.25.54.49 1.22 1.69 2.25 2.63 2.99.08 1.32.15 2.61.19 3.84a11.6 11.6 0 0 1-.97-1.17c-.5-.65-.85-1.64-1.05-1.79-.2-.15-.65.1-.65.15-.2.35.3 1.24.99 2.19.56.74 1.25 1.53 1.7 1.87a34.3 34.3 0 0 1-.11 3.44c0 .25.15.45.4.5.25 0 .45-.15.5-.4zm4.83 23.39a8.1 8.1 0 0 0 .14-2.12c0-.74-.05-1.44-.15-2.19 0-.25-.25-.4-.49-.4-.2.05-.4.25-.35.5l.15 2.09a15 15 0 0 1-.02.68l-1.22-2.27c.02-1.37-.25-3.2-.4-4.52v-.05c-.05-.25-.3-.4-.5-.4-.25.05-.44.25-.4.5v.05c.11.78.24 1.71.32 2.6l-.12-.22c-.31-.59-.65-1.19-.97-1.78.01-.04-.12-1.45-.22-2.14-.05-.75-.15-1.44-.2-2.14 0-.25-.2-.45-.45-.45s-.45.25-.45.45v.05c.05.7.15 1.44.25 2.19l.01.09a690.9 690.9 0 0 0-2.49-4.46c-.15-.25-.4-.3-.59-.2-.25.15-.3.39-.2.59.96 1.69 1.9 3.36 2.82 5.02l-.49-.2a45.6 45.6 0 0 0-1.88-.7c-.2-.1-.44 0-.55.25-.1.25.05.5.25.55.6.2 1.24.5 1.88.75.5.21.98.39 1.47.58l1.07 1.95.52.97c-.29-.13-.57-.27-.86-.43-.75-.39-1.44-.74-2.09-.94-.25-.1-.5.05-.6.25-.05.25.1.5.29.55.6.2 1.29.54 1.99.89.62.38 1.28.71 1.91.91l1.2 2.29-.07-.03c-.99-.4-1.99-.95-3.03-1.64-.2-.15-.5-.1-.6.1-.15.2-.1.44.1.59a16.8 16.8 0 0 0 3.23 1.79c.2.05.4.15.6.2.12.05.23.1.35.13.4.79.81 1.57 1.19 2.35.1.25.35.3.6.2.2-.1.3-.35.2-.59l-1.15-2.24zm2.82-44.69c-.25.2-.35.5-.35.8s.1.6.35.8c.13.12.29.19.48.24a.92.92 0 0 0 .65 0c.18-.05.35-.12.47-.24.25-.2.35-.5.35-.8s-.1-.6-.35-.8c-.2-.2-.5-.35-.8-.35-.3 0-.6.15-.8.35zm60.59 62.03c-1.92 1.3-3.83 2.56-5.75 3.77a8.45 8.45 0 0 1 .83-2.43c.15-.2.05-.45-.15-.59-.2-.1-.49-.05-.6.2-.35.6-.6 1.19-.74 1.79a5.9 5.9 0 0 0-.29 1.64c-.73.46-1.45.91-2.18 1.35.09-.53.29-1.17.59-1.89.05-.2.15-.4.29-.65.1-.25.2-.5.35-.69.1-.25 0-.5-.2-.6-.2-.15-.49-.05-.6.15v.05c-.15.25-.25.5-.35.69-.1.2-.2.45-.35.69a7.5 7.5 0 0 0-.65 2.79l-2.57 1.52c.01-.39.06-.83.19-1.33.25-.84.65-1.79 1.3-2.93.1-.2 0-.45-.2-.6-.2-.1-.45-.05-.6.2a14.58 14.58 0 0 0-1.34 3.08 5.64 5.64 0 0 0-.22 2.08l-1.78 1.01c.09-.49.18-.99.31-1.5.2-.74.5-1.49.8-2.28.1-.2 0-.45-.2-.55-.25-.1-.5 0-.6.2a17.58 17.58 0 0 0-1.26 4.66 187.6 187.6 0 0 1-3.36 1.8c-.25.1-.3.34-.2.59.1.2.35.3.59.15 1.16-.59 2.33-1.21 3.49-1.84.72.17 1.45.31 2.22.4.8.15 1.64.2 2.48.15.25 0 .45-.2.45-.44 0-.2-.2-.4-.45-.4a18.9 18.9 0 0 1-3.55-.34l1.62-.92c.7.17 1.46.26 2.23.31.8.05 1.64 0 2.53-.05.25-.05.4-.25.4-.5s-.25-.4-.44-.4c-.85.1-1.69.1-2.49.05-.36 0-.73-.02-1.09-.07.74-.44 1.49-.88 2.23-1.34.71.17 1.49.22 2.24.26.85.05 1.64 0 2.43 0a.44.44 0 1 0 0-.88c-.79.05-1.59.05-2.38 0-.4 0-.78-.03-1.15-.07l2.05-1.27 3.37.1c.25 0 .45-.2.45-.45s-.2-.44-.4-.44l-2.07-.06c1.74-1.12 3.49-2.27 5.25-3.47.2-.15.25-.4.1-.6-.08-.2-.38-.25-.58-.1zm31.99-52.2c-.15-.2-.45-.2-.65-.1-.2.15-.2.45-.04.64.49.7 1.09 1.34 1.63 1.89.54.54 1.12.99 1.74 1.39l.1 2.53c0 .25.2.45.45.4.25 0 .44-.2.4-.45l-.1-2.51c.12-.11.24-.21.34-.32l.5-.5c.75-.89 1.54-2.03 2.23-3.37.1-.25.05-.5-.2-.6-.2-.15-.44-.05-.54.15a28.25 28.25 0 0 1-2.38 3.48l-.15-3.83c.51-.48.99-1.09 1.38-1.75.45-.75.85-1.59 1.19-2.43.1-.25-.05-.5-.25-.6-.25-.1-.5.05-.6.25a13.2 13.2 0 0 1-1.09 2.33c-.21.36-.44.68-.69.97l-.11-2.99c.95-.91 1.37-2.3 1.79-3.74v-.05a.46.46 0 0 0-.3-.54c-.25-.05-.49.1-.54.29v.05c-.28.95-.57 1.9-1 2.65l-.19-4.88c-.05-.25-.25-.45-.49-.45-.25 0-.4.2-.4.45l.22 5.4c-.03-.01-1.27-.88-1.86-1.52-.15-.2-.45-.2-.65-.05a.53.53 0 0 0 0 .65 8.22 8.22 0 0 0 2.56 1.94l.13 3.28-.25-.1a7 7 0 0 1-2.09-1.83c-.15-.16-.45-.2-.6-.05-.2.15-.25.45-.1.64.8.9 1.54 1.64 2.39 2.04.15.05.29.15.49.2l.2.06.15 3.68c-.36-.28-.71-.59-1.04-.92a10.46 10.46 0 0 1-1.58-1.78zm7.99 22c-.69.65-2.32 1.7-2.33 1.71l2.33-5.43c.05-.2-.05-.45-.25-.54-.24-.1-.5 0-.59.2l-2.2 5.16a13.4 13.4 0 0 1-.38-2.28l-.05-1.49c0-.25-.2-.45-.45-.45-.2 0-.4.2-.4.45 0 .05 0 1.29.05 1.54.09 1.18.28 2.37.7 3.48l-1.36 3.16a9.05 9.05 0 0 1-1.03-2.52l-.15-.64c0-.2-.05-.45-.05-.65 0-.25-.25-.45-.5-.45-.2 0-.4.24-.4.45v.05c0 .25.05.49.1.74 0 .2.05.45.1.7a9.97 9.97 0 0 0 1.51 3.27l-1.35 3.12c-.17-.52-.33-1.03-.45-1.53-.2-.84-.35-1.74-.5-2.58 0-.25-.24-.4-.49-.4-.2.05-.4.25-.35.5.1.89.3 1.79.5 2.68.18.86.46 1.68.8 2.47l-1.05 2.45c-.1.25 0 .5.25.6.2.1.45 0 .54-.25l1.05-2.39a29.47 29.47 0 0 0 4.01-2.57c.2-.1.25-.4.1-.59-.15-.2-.4-.25-.6-.1-.75.54-1.44 1.04-2.09 1.44l-.87.5 1.32-3.07a14.5 14.5 0 0 0 4.22-2.85c.2-.15.2-.45 0-.64a.46.46 0 0 0-.6 0 11.65 11.65 0 0 1-3.08 2.27l1.15-2.65c.13-.04.74-.32.94-.42.84-.45 1.74-1.09 2.48-1.79.2-.15.2-.45.05-.6-.13-.2-.43-.2-.63-.06zM50.45 30.2c.89-.32 1.78-.65 2.67-1 .58.2 1.15.38 1.71.55.65.15 1.29.3 1.94.4.25 0 .5-.15.5-.4.05-.25-.1-.45-.35-.49-.65-.1-1.29-.2-1.89-.35a48.5 48.5 0 0 0-.64-.21 75.4 75.4 0 0 0 2.45-1.06c.88.49 1.8.69 2.76.87l.6.15c.2.05.45-.1.5-.35a.46.46 0 0 0-.35-.55c-.2-.05-.4-.05-.6-.1-.65-.14-1.28-.26-1.88-.49l.54-.25c.62-.31 1.25-.62 1.86-.95 1.17.3 3.6.35 3.65.35.25.05.45-.15.45-.4s-.2-.45-.4-.45c-.1 0-1.7-.07-2.45-.17 1.58-.85 3.16-1.75 4.78-2.71.2-.15.3-.4.15-.65-.1-.2-.4-.25-.6-.15a94.31 94.31 0 0 1-5.14 2.91c.1-.33.23-.68.37-1.03.1-.1.15-.25.2-.35.05-.1.1-.25.2-.35.1-.2.05-.5-.15-.6-.25-.15-.5-.05-.6.15 0 0-.95 2.11-1.06 2.72L58 26.1l-.62.29c.05-.29.1-.57.18-.84.15-.54.35-1.04.7-1.49.15-.2.1-.5-.1-.65a.47.47 0 0 0-.65.1c-.4.6-.64 1.19-.79 1.79-.12.51-.21 1.02-.26 1.52-.96.44-1.92.85-2.89 1.25.1-.39.21-.78.37-1.18.2-.6.49-1.24.89-1.94.1-.2.05-.45-.2-.6-.2-.1-.45-.05-.6.2a13 13 0 0 0-.94 2.03c-.24.66-.38 1.27-.52 1.88-.8.31-1.6.62-2.41.9-.25.05-.35.3-.25.55.04.29.29.38.54.29zM34.76 47.08c.2-.15.25-.4.15-.6-.1-.24-.4-.29-.6-.2-.45.25-.85.5-1.19.75-.37.26-.7.46-1.08.59.45-.81.92-1.7 1.4-2.65.88.06 1.64-.42 2.41-.87.4-.25.74-.5 1.09-.6.25-.1.35-.35.3-.55-.1-.24-.35-.35-.55-.29-.45.15-.89.4-1.29.69-.5.29-1 .59-1.5.71l.01-.02 1.15-2.24c1.15-.1 2.87-1.28 3.17-1.48.2-.1.25-.4.1-.6-.1-.2-.4-.25-.6-.15-.3.2-1.59 1.11-2.16 1.25 1.23-2.32 4.14-6.96 4.19-6.96.1-.2.05-.49-.15-.6-.22-.14-.44-.06-.59.1a66.03 66.03 0 0 0-3.94 6.49c-.1-.5-.24-2.37-.24-2.47.05-.25-.1-.5-.35-.54a.49.49 0 0 0-.5.4c-.05.15.27 3.11.44 3.82-.42.79-.82 1.57-1.2 2.33l-.13-.28c-.35-.75-.75-1.49-.55-2.19a.46.46 0 0 0-.35-.55c-.2-.05-.45.1-.5.35-.3.99.15 1.88.6 2.78.15.31.3.61.4.9-.54 1.05-1.05 2.04-1.54 2.93a17 17 0 0 1-.4-1.89c0-.2-.05-.4-.05-.55 0-.15-.05-.24-.05-.4v-.05c0-.25-.2-.45-.45-.45s-.45.2-.4.45V45c.05.2.05.4.1.54.14.96.43 2.19.67 2.81-.36.62-.72 1.18-1.07 1.66-.15.15-.1.45.1.6.2.15.5.1.6-.1.39-.53.8-1.16 1.21-1.85.92-.08 1.47-.44 2.17-.88.32-.25.67-.45 1.17-.7zm76.53 67.2c.15-.65.44-1.24.74-1.84.15-.2.05-.45-.15-.6-.2-.1-.5-.05-.6.2a9.85 9.85 0 0 0-.85 1.98 7.83 7.83 0 0 0-.34 1.81c-1 .62-2.01 1.24-3.03 1.83a13.17 13.17 0 0 1 .84-3.59c.1-.25-.05-.5-.25-.55-.24-.1-.49 0-.6.25-.04.2-.34 1.09-.4 1.29a19.14 19.14 0 0 0-.53 3.13 137.2 137.2 0 0 1-3.39 1.81c.03-.5.11-1 .25-1.51.25-.7.6-1.44 1.1-2.14.15-.2.1-.49-.1-.6-.2-.15-.45-.1-.6.1-.55.79-.94 1.59-1.25 2.38a6.89 6.89 0 0 0-.3 2.22 91.29 91.29 0 0 1-5.66 2.6c-.2.1-.3.35-.2.54.05.25.35.35.55.25.72-.29 1.42-.61 2.12-.91l.11.07a6.85 6.85 0 0 0 3.97.5c.25-.05.45-.25.4-.5a.48.48 0 0 0-.49-.4 5.96 5.96 0 0 1-2.89-.17c.89-.41 1.77-.84 2.64-1.27.71.21 1.35.35 1.94.39.7.1 1.29.15 1.89.1.25 0 .44-.2.44-.44-.05-.25-.24-.45-.49-.45-.55.05-1.1.05-1.69-.05-.29-.04-.58-.1-.87-.16 1.06-.56 2.12-1.11 3.16-1.7.5.14.99.24 1.49.32.6.05 1.19.1 1.79.1.25.05.45-.15.45-.4s-.2-.45-.45-.45c-.6 0-2.01-.2-2.17-.23.93-.55 1.84-1.11 2.74-1.67.48.13.93.21 1.42.21.49.05 1.04.05 1.59 0 .24 0 .4-.25.4-.49-.05-.2-.25-.4-.5-.35-.5.05-1.68-.04-1.8-.06 1.55-.99 3.07-2 4.58-3.03.2-.15.25-.44.1-.64a.46.46 0 0 0-.64-.1c-1.53 1.07-3.1 2.13-4.7 3.15a6 6 0 0 1 .23-.93zm-10.18-79.41c.2-.2.35-.5.35-.8a1.2 1.2 0 0 0-1.2-1.15c-.3 0-.6.15-.8.35-.2.2-.35.45-.35.8 0 .3.15.6.35.8.2.2.5.3.8.3.35-.01.65-.11.85-.3zM43.46 95.16c0 6.17 2.8 9.32 8.53 9.63 4.77 0 9.71 0 14.6.35 3.17.22 5.87 1.66 8.11 4.36 1.85-2.46 4.41-3.85 8.29-4.36 4.63-.35 9.35-.35 13.92-.35 5.53-.4 8.23-3.3 8.23-8.88 0-.24 0-.49-.02-.74V44.33H43.46v50.83zM82.82 66.4h19.12v-1.88H83.07v-1.34h18.87v-1.89H83.07V59.9h18.87v-1.64H83.07v-1.39h18.87v-2.03H83.07v-1.39h18.87V51.2H83.07v-1.34h18.87v-1.99H82.82v-2.08h20.86v22.05H82.82V66.4zm-.05 35.75h12.72c2.14.15 5.12-1.14 5.12-2.14l-17.83-.05v-1.19h18.57c.05-.2.35-1.19.35-2.03H82.77v-1.19l18.92-.05v-2.08H82.77v-1.19h18.92l.05-2.44H82.82V88.6h18.92v-2.43H82.82v-1.29h18.92v-2.29H82.82v-2.24h20.86v16.59c-.15 4.02-3.48 6.85-8.2 6.45H82.77v-1.24zm-16.62 1.24h-14.4a5.54 5.54 0 0 1-3.58-1.24h15.99v-2.14H46.83c-.5-.4-.8-.9-.9-1.24h18.23v-2.03H45.33a3.6 3.6 0 0 1-.19-1.24h19.02v-2.08H45.14v-1.19h19.02v-2.44H45.14V88.6h19.02v-2.43H45.14v-1.29h19.02v-2.29H45.14v-2.24h21.01v23.04zM45.13 66.4h19.12v-1.88H45.38v-1.34h18.87v-1.89H45.38V59.9h18.87v-1.64H45.38v-1.39h18.87v-2.03H45.38v-1.39h18.87V51.2H45.38v-1.34h18.87v-1.99H45.13v-2.08H66v22.05H45.13V66.4zm-4.15-21.92v50.63c.48 8.4 4.91 12.31 13.62 11.95l12.07.35.1.03c3.72 1.03 6.32 3.08 8 6.23 1.8-3.5 4.51-5.65 8.25-6.26l12.87-.35c6.85-.1 10.16-3.23 10.43-9.82v-1c-.12 6.01-3.23 9.32-9.33 9.75l-.04-.61v.61c-4.76 0-9.26 0-13.82.34-3.86.51-6.23 1.84-7.91 4.44l-.47.7-.65-.82-.26-.37a10.1 10.1 0 0 0-7.32-3.95c-4.87-.33-9.78-.33-14.56-.33-6.44-.35-9.71-3.99-9.71-10.84v-51.7l-1.27 1.02z" class="st0"/></g></svg>